Coordinates
version=1
nRows=8
nColumns=36
inDegrees=yes

Units are S.I. units (second, meters, Newtons, ...)
If the header above contains a line with 'inDegrees', this indicates whether rotational values are in degrees (yes) or radians (no).

endheader
time	pelvis_tilt	pelvis_list	pelvis_rotation	pelvis_tx	pelvis_ty	pelvis_tz	hip_flexion_r	hip_adduction_r	hip_rotation_r	knee_angle_r	knee_angle_r_beta	ankle_angle_r	subtalar_angle_r	mtp_angle_r	hip_flexion_l	hip_adduction_l	hip_rotation_l	knee_angle_l	knee_angle_l_beta	ankle_angle_l	subtalar_angle_l	mtp_angle_l	lumbar_extension	lumbar_bending	lumbar_rotation	arm_flex_r	arm_add_r	arm_rot_r	elbow_flex_r	pro_sup_r	arm_flex_l	arm_add_l	arm_rot_l	elbow_flex_l	pro_sup_l
      0.00000000	     -6.19835324	      3.10247302	     -4.96437677	      1.68030140	      0.90824648	      0.01810470	     55.79598487	    -10.37824520	      3.05142124	     32.01290001	      0.55873051	      1.99996727	     -7.97603033	     -7.03617443	     25.76246160	      7.53062883	      0.66815343	     34.57388581	      0.60342814	     22.35200164	     -2.22105454	     -7.03617443	    -14.75159176	    -10.10722532	    -10.15998345	     53.03060734	     -8.47437972	     49.69538656	    126.41626372	     74.46206562	     66.02548721	    -18.91502966	     64.89790718	    129.58777933	     71.85034307
      0.01666670	     -6.30524911	      1.85923142	     -3.52085082	      1.67700921	      0.89656442	      0.01726887	     54.88766054	    -10.53554995	      0.04892239	     28.39512264	      0.49558838	      8.86959162	      3.11667162	     -7.13724297	     28.78031578	      6.92913722	      0.66472726	     40.10062201	      0.69988789	     22.47372910	     -2.98095522	     -7.13724297	    -16.62615036	     -8.37710856	     -9.63389625	     57.04063308	     -9.37921462	     58.32326428	    132.03947904	     93.71799441	     68.70720528	    -17.79743407	     59.91488866	    132.68054862	     93.66959809
      0.03333330	     -5.72066351	      2.39077677	     -4.57178588	      1.67074231	      0.89064723	      0.01469087	     54.11101008	    -10.78655050	     -2.48512340	     25.27251938	      0.44108867	     10.78485386	      8.37394803	     -7.14723831	     30.83196567	      7.66698387	     -0.07536678	     44.46533528	      0.77606650	     22.80684821	     -4.05813998	     -7.14723831	    -17.48199966	     -8.34198519	     -9.26523608	     59.95857167	     -7.46769085	     58.74833053	    132.48975400	     94.22202421	     69.77747055	    -18.16674913	     58.04868850	    132.92727811	     94.15786925
      0.05000000	     -5.49233894	      3.26146083	     -3.99593215	      1.66315465	      0.88540733	      0.01456598	     54.37278480	    -12.13219415	     -3.39685738	     24.77286995	      0.43236815	     12.15684981	     11.07764531	     -7.16290244	     32.83744538	      9.13533923	     -0.37954090	     47.34250555	      0.82628260	     24.33650975	     -2.41494380	     -7.16290244	    -19.02829443	     -8.59016595	    -10.10099590	     62.90832682	     -6.26144103	     59.37524668	    131.24774591	     94.46047768	     72.05301125	    -17.67999836	     57.31458795	    132.47294754	     94.50056054
      0.06666670	     -5.51851970	      4.11285459	     -3.73157330	      1.66302648	      0.87965348	      0.01388848	     55.09933728	    -13.12885441	     -3.56259905	     24.85995138	      0.43388800	     11.20025859	     12.66361740	     -7.17232645	     34.35752962	     10.33657165	     -0.73961238	     49.16043507	      0.85801145	     26.02347099	     -1.22919626	     -7.17232645	    -20.49946933	     -9.14565412	    -10.41070142	     64.80236896	     -6.23337726	     60.76534215	    131.14581434	     94.77774875	     74.03867627	    -17.22356795	     58.05539487	    132.40191962	     94.96277282
      0.08333330	     -5.94083572	      5.10784286	     -3.29897213	      1.65846484	      0.86836585	      0.01572143	     56.61392221	    -14.12897617	     -2.84676739	     25.45847815	      0.44433427	      9.33927634	     13.06985239	     -7.24804855	     36.41212857	     11.43184391	     -1.11169357	     50.83386843	      0.88721838	     27.41972033	     -0.06302616	     -7.24804855	    -21.60685650	    -10.03762417	    -10.52713995	     66.86633310	     -6.07221981	     60.94699125	    131.86324391	     95.01179861	     77.26525321	    -15.54148940	     58.93070270	    131.43459747	     94.92476266
      0.10000000	     -6.41134864	      5.88572775	     -2.53655924	      1.64412856	      0.86185557	      0.02209852	     58.41803145	    -15.04923198	     -2.15962691	     26.19029533	      0.45710689	      6.91557420	     13.59137800	     -7.24957486	     38.92200890	     12.29389522	     -1.27127630	     52.80295697	      0.92158545	     27.78331030	      0.24918506	     -7.24957486	    -23.30118695	    -10.42363995	    -11.05416729	     69.51150902	     -5.39368875	     60.51639825	    131.23844181	     94.96219743	     80.63318678	    -14.62239479	     58.07987805	    130.88374472	     94.84042977
      0.11666670	     -6.52288459	      7.18813752	     -1.99139639	      1.63877392	      0.85585631	      0.01969238	     60.25359494	    -16.06149687	     -0.63002923	     27.09435582	      0.47288572	      5.17715164	     13.20049379	     -7.25817946	     40.98909394	     13.36143159	     -2.07618112	     54.45155752	      0.95035896	     28.46466908	      1.43100622	     -7.25817946	    -25.28905346	    -11.61258669	    -12.24181638	     72.15724276	     -4.34003117	     61.48332008	    131.09029775	     94.62312624	     85.17354635	    -14.77254531	     59.18050173	    130.21890975	     94.25799977
